<svg width="105" height="123" viewBox="0 0 105 123" xmlns="http://www.w3.org/2000/svg"><g transform="translate(2 2)" fill="none" fill-rule="evenodd"><path d="M27.7 80.2c-4.7 3-11 2.7-15.3-1-5.2-4.5-6-12.2-2-17.7 0 .2-.3.4-.5.7-6.2 7.2-5.5 18 1.7 24.2 6.7 5.7 18 6.5 24 .7l-8-6.8z" fill="#F78674" fill-rule="nonzero"/><path d="M27.7 80.2c-4.7 3-11 2.7-15.3-1-5.2-4.5-6-12.2-2-17.7 0 .2-.3.4-.5.7-6.2 7.2-5.5 18 1.7 24.2 6.7 5.7 18 6.5 24 .7l-8-6.8z" stroke="#F97D69" stroke-width="2.9" stroke-linecap="round" stroke-linejoin="round"/><path d="M62.6 80.2c4.7 3 10.8 2.7 15.3-1 5-4.5 5.8-12.2 1.8-17.7l.6.7c6 7.2 5.4 18-2 24.2C72 92 60.8 93 54.5 87l8.2-6.8z" fill="#F78674" fill-rule="nonzero"/><path d="M62.6 80.2c4.7 3 10.8 2.7 15.3-1 5-4.5 5.8-12.2 1.8-17.7l.6.7c6 7.2 5.4 18-2 24.2C72 92 60.8 93 54.5 87l8.2-6.8z" stroke="#F97D69" stroke-width="2.9" stroke-linecap="round" stroke-linejoin="round"/><path d="M70.4 103.3c10.8 0 19.7-9 19.7-19.7v-1c-.5 7.7-7 13.8-14.7 13.8-6.6 0-12.2-4.4-14-10.2 0-9.2 3.5-17.7 9.3-24 6.7-6.6 10.8-15.8 10.8-26 0-20-16.2-36-36.3-36C25 0 9 16 9 36c0 10.2 4 19.4 10.7 26 5.8 6.2 9.3 14.7 9.4 24-2 5.8-7.4 10.2-14 10.2-8 0-14.3-6-14.8-13.8v1c0 10.8 8.8 19.7 19.6 19.7 7.2 0 14.5-4 18.5-9.6.3 5.2 2 10.4 5 14.6 8 11.2 23.4 14 34.6 6l.8-.8c-8.2 5-19.2 3-25-5.2-3.3-4.8-4-10.5-2.6-15.7 4 6.3 11.6 10.7 19.2 10.7z" fill="#F69282" fill-rule="nonzero"/><path d="M70.4 103.3c10.8 0 19.7-9 19.7-19.7v-1c-.5 7.7-7 13.8-14.7 13.8-6.6 0-12.2-4.4-14-10.2 0-9.2 3.5-17.7 9.3-24 6.7-6.6 10.8-15.8 10.8-26C81.4 16.3 65.2 12 45 12 25 12 9 16.3 9 36.3c0 10 4 19.3 10.7 25.8 5.8 6.4 9.3 15 9.4 24-2 6-7.4 10.4-14 10.4-8 0-14.3-6-14.8-13.8v1c0 10.8 8.8 19.7 19.6 19.7 7.2 0 14.5-4 18.5-9.6.3 5.2 2 10.4 5 14.6 8 11.2 23.4 14 34.6 6l.8-.8c-8.2 5-19.2 3-25-5.2-3.3-4.8-4-10.5-2.6-15.7 4 6.3 11.6 10.7 19.2 10.7z" fill="#F97D69" fill-rule="nonzero"/><path d="M62 79.3c1-6.6 4.2-12.4 8.6-17 1.7-1.7 3.2-3.6 4.6-5.6-2.6-6.5-15 4.5-30 4.5s-27.3-11-30-4.6c1.5 2 3 4 4.7 5.5 4.3 4.8 7.2 10.7 8.6 17.2 4.8 2.4 10.6 3.7 16.7 3.7 6 0 11.8-1.3 16.6-3.7z" fill="#E76650" fill-rule="nonzero" opacity=".6"/><path d="M70.4 103.3c10.8 0 19.7-9 19.7-19.7v-1c-.5 7.7-7 13.8-14.7 13.8-6.6 0-12.2-4.4-14-10.2 0-9.2 3.5-17.7 9.3-24 6.7-6.6 10.8-15.8 10.8-26 0-20-16.2-36-36.3-36C25 0 9 16 9 36c0 10.2 4 19.4 10.7 26 5.8 6.2 9.3 14.7 9.4 24-2 5.8-7.4 10.2-14 10.2-8 0-14.3-6-14.8-13.8v1c0 10.8 8.8 19.7 19.6 19.7 7.2 0 14.5-4 18.5-9.6.3 5.2 2 10.4 5 14.6 8 11.2 23.4 14 34.6 6l.8-.8c-8.2 5-19.2 3-25-5.2-3.3-4.8-4-10.5-2.6-15.7 4 6.3 11.6 10.7 19.2 10.7z" stroke="#F97D69" stroke-width="2.9" stroke-linecap="round" stroke-linejoin="round"/><path d="M50.2 83.6C49 87 49.8 91 52 93.8M38 94c2.3-2.7 3-7 1.8-10.2" stroke="#F4705A" stroke-width="2.9" stroke-linecap="round" stroke-linejoin="round"/><g stroke-linecap="round" stroke-linejoin="round" stroke-width="4.9" stroke="#C45340"><path d="M34.7 58.4c0 2-1.6 3.5-3.5 3.5-2 0-3.6-1.7-3.6-3.6M62.5 58.4c0 2-1.6 3.5-3.5 3.5-2 0-3.6-1.7-3.6-3.6"/></g><g fill-rule="nonzero"><g transform="translate(25.99 52.302)"><ellipse fill="#FFF" cx="5.2" cy="5.1" rx="4.9" ry="4.8"/><ellipse fill="#55271F" cx="3.7" cy="3.4" rx="1.8" ry="1.8"/></g><g transform="translate(54.107 52.302)"><ellipse fill="#FFF" cx="4.9" cy="5.1" rx="4.9" ry="4.8"/><ellipse fill="#55271F" cx="3.3" cy="3.4" rx="1.8" ry="1.8"/></g></g><ellipse fill="#FFF" fill-rule="nonzero" opacity=".3" cx="29.2" cy="21.7" rx="1.1" ry="1.1"/><ellipse fill="#FFF" fill-rule="nonzero" opacity=".3" cx="47.4" cy="22.9" rx="2.2" ry="2.2"/><ellipse fill="#FFF" fill-rule="nonzero" opacity=".3" cx="41.5" cy="28.5" rx="1.1" ry="1.1"/><ellipse fill="#FFF" fill-rule="nonzero" opacity=".3" cx="31" cy="31.7" rx="2.1" ry="2.1"/><ellipse fill="#FFF" fill-rule="nonzero" opacity=".3" cx="63.6" cy="27.4" rx="2.3" ry="2.3"/><ellipse fill="#FFF" fill-rule="nonzero" opacity=".3" cx="55.8" cy="39.5" rx="1.3" ry="1.3"/><ellipse fill="#FFF" fill-rule="nonzero" opacity=".3" cx="26.4" cy="37.4" rx="1" ry="1"/><ellipse fill="#FFF" fill-rule="nonzero" opacity=".3" cx="68.6" cy="39.2" rx="1.7" ry="1.7"/><ellipse fill="#FFF" fill-rule="nonzero" opacity=".3" cx="19.3" cy="44.9" rx="1.4" ry="1.4"/><ellipse fill="#FFF" fill-rule="nonzero" opacity=".3" cx="43.5" cy="41.6" rx="2" ry="2"/><ellipse fill="#FFF" fill-rule="nonzero" opacity=".3" cx="64.6" cy="18.5" rx="2.4" ry="2.4"/><ellipse fill="#FFF" fill-rule="nonzero" opacity=".3" cx="18.6" cy="29.6" rx="2.1" ry="2.1"/><ellipse fill="#FFF" fill-rule="nonzero" opacity=".3" cx="43.3" cy="11" rx="4" ry="4"/><ellipse fill="#FFF" fill-rule="nonzero" opacity=".5" cx="98.1" cy="32.1" rx="4.6" ry="4.6"/><ellipse fill="#FFF" fill-rule="nonzero" opacity=".5" cx="88.2" cy="18" rx="1.2" ry="1.2"/><ellipse fill="#FFF" fill-rule="nonzero" opacity=".5" cx="92.2" cy="45.9" rx="1.5" ry="1.5"/><ellipse fill="#FFF" fill-rule="nonzero" opacity=".5" cx="94.5" cy="58.2" rx="3" ry="3"/></g></svg>