<svg xmlns="http://www.w3.org/2000/svg" width="24" height="24" viewBox="0 0 24 24">
  <g fill="#FFF">
    <path d="M8.475,1.125 C5.7,2.1 3.3,4.2 1.95,6.825 C1.5,7.725 1.125,8.7 0.975,9.75 C0.45,12.225 0.825,14.925 1.95,17.175 C2.7,18.675 3.75,19.95 5.1,21 C6.3,21.975 7.725,22.725 9.3,23.1 C11.25,23.625 13.275,23.625 15.15,23.175 C16.875,22.8 18.525,21.975 19.875,20.7 C21.3,19.425 22.275,17.775 22.8,15.9 C23.4,13.95 23.475,11.85 23.1,9.825 C19.5,9.825 15.9,9.825 12.3,9.825 C12.3,11.325 12.3,12.825 12.3,14.325 C14.4,14.325 16.5,14.325 18.525,14.325 C18.3,15.75 17.4,17.1 16.2,17.85 C15.45,18.375 14.55,18.675 13.65,18.825 C12.75,18.975 11.775,18.975 10.875,18.825 C9.975,18.675 9.075,18.225 8.325,17.7 C7.125,16.875 6.15,15.6 5.7,14.175 C5.175,12.75 5.175,11.175 5.7,9.675 C6.075,8.7 6.6,7.725 7.35,6.975 C8.25,6 9.45,5.325 10.8,5.1 C11.925,4.875 13.05,4.875 14.175,5.25 C15.075,5.55 15.975,6.075 16.65,6.675 C17.325,6 18.075,5.25 18.75,4.575 C19.125,4.2 19.5,3.825 19.875,3.45 C18.825,2.475 17.55,1.65 16.2,1.125 C13.725,0.3 10.95,0.3 8.475,1.125 Z"/>
    <path d="M8.475,1.125 C10.95,0.3 13.725,0.3 16.2,1.2 C17.55,1.725 18.825,2.475 19.875,3.525 C19.5,3.9 19.125,4.275 18.75,4.65 C18.075,5.325 17.325,6.075 16.65,6.75 C15.975,6.075 15.075,5.55 14.175,5.325 C13.125,5.025 11.925,4.95 10.8,5.175 C9.525,5.475 8.325,6.15 7.35,7.05 C6.6,7.8 6,8.775 5.7,9.75 C4.425,8.775 3.225,7.8 1.95,6.825 C3.3,4.2 5.7,2.1 8.475,1.125 Z"/>
    <path d="M.975 9.75C1.2 8.775 1.5 7.8 1.95 6.825 3.225 7.8 4.425 8.775 5.7 9.75 5.175 11.175 5.175 12.75 5.7 14.25 4.425 15.225 3.225 16.2 1.95 17.175.825 14.85.45 12.225.975 9.75zM12.225 9.825C15.825 9.825 19.425 9.825 23.025 9.825 23.4 11.85 23.325 13.95 22.725 15.9 22.2 17.7 21.225 19.35 19.8 20.7 18.6 19.725 17.4 18.825 16.125 17.85 17.325 17.025 18.15 15.75 18.45 14.325 16.35 14.325 14.25 14.325 12.225 14.325 12.225 12.825 12.225 11.325 12.225 9.825z"/>
    <path d="M1.95,17.175 C3.225,16.2 4.425,15.225 5.7,14.25 C6.15,15.675 7.125,16.95 8.325,17.775 C9.075,18.3 9.975,18.675 10.875,18.9 C11.775,19.05 12.675,19.05 13.65,18.9 C14.55,18.75 15.45,18.375 16.2,17.925 C17.4,18.9 18.6,19.8 19.875,20.775 C18.525,21.975 16.95,22.8 15.15,23.25 C13.2,23.7 11.175,23.7 9.3,23.175 C7.8,22.8 6.375,22.05 5.1,21.075 C3.825,19.95 2.7,18.6 1.95,17.175 Z"/>
  </g>
</svg>
