<svg xmlns="http://www.w3.org/2000/svg" width="42" height="31" viewBox="0 0 42 31">
  <path fill="#FFF" stroke="#FFF" stroke-width=".5" d="M125.034783,26.2956532 C128.063733,26.2956532 130.590308,24.1447281 131.170413,21.2869574 L133.711236,21.2869574 C133.103649,25.5346958 129.450543,28.8000011 125.034783,28.8000011 C121.973878,28.8000011 119.279424,27.2310379 117.711766,24.853453 L116.269566,26.2956532 L116.269566,25.0434793 L116.269566,22.5391313 L116.269566,21.2869574 L116.358331,21.2869574 L118.899154,21.2869574 L121.278262,21.2869574 L119.535407,23.0298119 C120.597374,24.9756189 122.661924,26.2956532 125.034783,26.2956532 Z M131.170413,18.7826094 L130.043479,18.7826094 L128.791305,18.7826094 L130.534175,17.0397825 C129.472238,15.0939773 127.40767,13.7739136 125.034783,13.7739136 C122.005833,13.7739136 119.479259,15.9248387 118.899154,18.7826094 L116.358331,18.7826094 C116.965918,14.534871 120.619024,11.2695657 125.034783,11.2695657 C128.095707,11.2695657 130.790175,12.8385478 132.357836,15.2161663 L133.800001,13.7740359 L133.800001,18.7826094 L133.711236,18.7826094 L131.170413,18.7826094 Z M105,17.5304355 C105,14.7541625 106.51205,12.3234467 108.759168,11.0228809 C108.890387,4.91278288 113.884516,0 120.026088,0 C124.074989,0 127.625182,2.13522158 129.612068,5.34106451 C130.34426,5.12477859 131.119444,5.00869585 131.92174,5.00869585 C135.408485,5.00869585 138.383146,7.20118797 139.542274,10.282724 C142.727631,11.1536823 145.069567,14.0686345 145.069567,17.5304355 C145.069567,21.6713319 141.705764,25.0434793 137.556303,25.0434793 L135.132916,25.0434793 C135.52402,24.2564812 135.825832,23.4172784 136.025094,22.5391313 L137.560481,22.5391313 C140.324522,22.5391313 142.565219,20.291033 142.565219,17.5304355 C142.565219,14.7642091 140.318668,12.5217396 137.560481,12.5217396 L137.522133,12.5217396 C137.210677,9.70436762 134.822114,7.51304378 131.92174,7.51304378 C130.597884,7.51304378 129.380658,7.96958553 128.418917,8.73381572 C127.331356,5.12931476 123.985269,2.50434793 120.026088,2.50434793 C115.185191,2.50434793 111.26087,6.42866939 111.26087,11.2695657 C111.26087,11.7401215 111.297949,12.2020169 111.369346,12.6524895 C109.154448,13.1698342 107.504348,15.1614268 107.504348,17.5304355 C107.504348,20.2966618 109.750899,22.5391313 112.509085,22.5391313 L113.765218,22.5391313 L113.765218,25.0434793 L112.513264,25.0434793 C108.364564,25.0434793 105,21.679775 105,17.5304355 Z" transform="translate(-104 1)"/>
</svg>
