<svg xmlns="http://www.w3.org/2000/svg" width="41" height="32" viewBox="0 0 41 32">
  <path fill="#FFF" stroke="#FFF" stroke-width=".5" d="M106,17.5304355 C106,14.7541625 107.51205,12.3234467 109.759168,11.0228809 C109.890387,4.91278288 114.884516,0 121.026088,0 C125.074989,0 128.625182,2.13522158 130.612068,5.34106451 C131.34426,5.12477859 132.119444,5.00869585 132.92174,5.00869585 C136.408485,5.00869585 139.383146,7.20118797 140.542274,10.282724 C143.727631,11.1536823 146.069567,14.0686345 146.069567,17.5304355 C146.069567,21.6713319 142.705764,25.0434793 138.556303,25.0434793 L136.132916,25.0434793 C136.52402,24.2564812 136.825832,23.4172784 137.025094,22.5391313 L138.560481,22.5391313 C141.324522,22.5391313 143.565219,20.291033 143.565219,17.5304355 C143.565219,14.7642091 141.318668,12.5217396 138.560481,12.5217396 L138.522133,12.5217396 C138.210677,9.70436762 135.822114,7.51304378 132.92174,7.51304378 C131.597884,7.51304378 130.380658,7.96958553 129.418917,8.73381572 C128.331356,5.12931476 124.985269,2.50434793 121.026088,2.50434793 C116.185191,2.50434793 112.26087,6.42866939 112.26087,11.2695657 C112.26087,11.7401215 112.297949,12.2020169 112.369346,12.6524895 C110.154448,13.1698342 108.504348,15.1614268 108.504348,17.5304355 C108.504348,20.2966618 110.750899,22.5391313 113.509085,22.5391313 L114.765218,22.5391313 L114.765218,25.0434793 L113.513264,25.0434793 C109.364564,25.0434793 106,21.679775 106,17.5304355 Z M124.360001,19.4571436 C124.360001,18.9840008 124.736321,18.6000007 125.200001,18.6000007 C125.663681,18.6000007 126.040001,18.9840008 126.040001,19.4571436 L126.040001,27.6857154 L127.980401,25.7057153 C128.145881,25.5368582 128.343281,25.4571439 128.560001,25.4571439 C128.973281,25.4571439 129.400001,25.8051439 129.400001,26.3142868 C129.400001,26.5418582 129.318941,26.7402868 129.156401,26.9057154 L125.807741,30.3231441 C125.653601,30.4804298 125.506181,30.6000012 125.200001,30.6000012 C124.893821,30.6000012 124.723721,30.4568584 124.585961,30.3162869 L121.243601,26.9057154 C121.081061,26.7402868 121.000001,26.5418582 121.000001,26.3142868 C121.000001,25.8055725 121.426721,25.4571439 121.840001,25.4571439 C122.056721,25.4571439 122.254121,25.5368582 122.419601,25.7057153 L124.360001,27.6857154 L124.360001,19.4571436 Z" transform="translate(-105.5 1)"/>
</svg>
