<?xml version="1.0" encoding="UTF-8"?>
<svg width="329px" height="381px" viewBox="0 0 329 381" version="1.1" xmlns="http://www.w3.org/2000/svg" xmlns:xlink="http://www.w3.org/1999/xlink">
    <!-- Generator: Sketch 47 (45396) - http://www.bohemiancoding.com/sketch -->
    <title>if__octopus_1376623</title>
    <desc>Created with Sketch.</desc>
    <defs></defs>
    <g id="Page-1" stroke="none" stroke-width="1" fill="none" fill-rule="evenodd">
        <g id="Desktop-HD" transform="translate(-462.000000, -320.000000)">
            <g id="Group-19" transform="translate(466.000000, 324.000000)">
                <g id="Group-10" transform="translate(0.079993, 0.559998)">
                    <g id="Group-2">
                        <g id="if__octopus_1376623" transform="translate(0.920007, 0.440002)">
                            <g id="Group" transform="translate(16.654206, 192.000000)">
                                <g id="Shape">
                                    <path d="M70.553271,58.8 C55.7158879,68.1 36.3364486,67.2 22.4074766,55.2 C6.05607477,41.4 3.63364486,17.4 16.3514019,0.3 C15.7457944,0.9 15.1401869,1.5 14.5345794,2.4 C-4.84485981,24.9 -2.42242991,58.8 20.2878505,78 C41.1813084,96 76.3065421,98.4 95.988785,80.4 L70.553271,58.8 Z" fill="#F78674" fill-rule="nonzero"></path>
                                    <path d="M70.553271,58.8 C55.7158879,68.1 36.3364486,67.2 22.4074766,55.2 C6.05607477,41.4 3.63364486,17.4 16.3514019,0.3 C15.7457944,0.9 15.1401869,1.5 14.5345794,2.4 C-4.84485981,24.9 -2.42242991,58.8 20.2878505,78 C41.1813084,96 76.3065421,98.4 95.988785,80.4 L70.553271,58.8 Z" stroke="#F97D69" stroke-width="8.98560215" stroke-linecap="round" stroke-linejoin="round"></path>
                                </g>
                                <g id="Shape" transform="translate(154.429907, 0.000000)">
                                    <path d="M25.7383178,58.8 C40.5757009,68.1 59.9551402,67.2 73.8841121,55.2 C90.235514,41.4 92.6579439,17.4 79.9401869,0.3 C80.5457944,0.9 81.1514019,1.5 81.7570093,2.4 C101.136449,24.9 98.7140187,58.8 76.0037383,78 C55.1102804,96 19.9850467,98.4 0.302803738,80.4 L25.7383178,58.8 Z" fill="#F78674" fill-rule="nonzero"></path>
                                    <path d="M25.7383178,58.8 C40.5757009,68.1 59.9551402,67.2 73.8841121,55.2 C90.235514,41.4 92.6579439,17.4 79.9401869,0.3 C80.5457944,0.9 81.1514019,1.5 81.7570093,2.4 C101.136449,24.9 98.7140187,58.8 76.0037383,78 C55.1102804,96 19.9850467,98.4 0.302803738,80.4 L25.7383178,58.8 Z" stroke="#F97D69" stroke-width="8.98560215" stroke-linecap="round" stroke-linejoin="round"></path>
                                </g>
                            </g>
                            <path d="M221.349533,322.8 C255.566355,322.8 283.424299,295.2 283.424299,261.3 C283.424299,260.4 283.424299,259.2 283.121495,258.3 C281.607477,282.3 261.319626,301.2 236.792523,301.2 C216.201869,301.2 198.639252,287.7 192.583178,269.4 C192.583178,240.6 203.786916,214.2 221.95514,194.1 C243.151402,173.7 256.171963,144.9 256.171963,113.4 C256.171963,51 204.998131,0.3 142.014953,0.3 C79.0317757,0.3 27.8579439,51 27.8579439,113.4 C27.8579439,145.2 40.8785047,173.7 62.0747664,194.1 C80.2429907,213.9 91.1439252,240.3 91.446729,269.1 C85.3906542,287.7 67.8280374,301.2 46.9345794,301.2 C22.4074766,301.2 2.11962617,282.3 0.605607477,258.3 C0.605607477,259.2 0.302803738,260.4 0.302803738,261.3 C0.302803738,295.2 28.1607477,322.8 62.3775701,322.8 C85.0878505,322.8 107.798131,310.8 120.515888,292.8 C121.424299,309.3 126.874766,325.5 136.261682,338.7 C161.091589,373.5 209.842991,381.9 244.968224,357.3 C246.179439,356.4 247.08785,355.8 247.996262,354.9 C221.95514,370.8 187.435514,363.9 169.570093,338.7 C158.971963,323.7 156.549533,305.7 161.091589,289.5 C173.506542,309.3 197.428037,322.8 221.349533,322.8 Z" id="Shape" fill="#F69282" fill-rule="nonzero"></path>
                            <path d="M221.349533,322.8 C255.566355,322.8 283.424299,295.2 283.424299,261.3 C283.424299,260.4 283.424299,259.2 283.121495,258.3 C281.607477,282.3 261.319626,301.2 236.792523,301.2 C216.201869,301.2 198.639252,287.7 192.583178,269.4 C192.583178,240.6 203.786916,214.2 221.95514,194.1 C243.151402,173.7 256.171963,144.9 256.171963,113.4 C256.171963,51 204.998131,37.5 142.014953,37.5 C79.0317757,37.5 27.8579439,51 27.8579439,113.4 C27.8579439,145.2 40.8785047,173.7 62.0747664,194.1 C80.2429907,213.9 91.1439252,240.3 91.446729,269.1 C85.3906542,287.7 67.8280374,301.2 46.9345794,301.2 C22.4074766,301.2 2.11962617,282.3 0.605607477,258.3 C0.605607477,259.2 0.302803738,260.4 0.302803738,261.3 C0.302803738,295.2 28.1607477,322.8 62.3775701,322.8 C85.0878505,322.8 107.798131,310.8 120.515888,292.8 C121.424299,309.3 126.874766,325.5 136.261682,338.7 C161.091589,373.5 209.842991,381.9 244.968224,357.3 C246.179439,356.4 247.08785,355.8 247.996262,354.9 C221.95514,370.8 187.435514,363.9 169.570093,338.7 C158.971963,323.7 156.549533,305.7 161.091589,289.5 C173.506542,309.3 197.428037,322.8 221.349533,322.8 Z" id="Shape" fill="#F97D69" fill-rule="nonzero"></path>
                            <path d="M170.700965,230.30846 C172.707395,220.171063 177.646302,211.077222 184.59164,203.772333 C187.369775,201.237984 189.839228,198.405476 192,195.274809 C187.832797,185.137413 167.92283,202.281539 144,202.281539 C120.07717,202.281539 100.167203,185.137413 96,195.12573 C98.1607717,198.256397 100.630225,201.088904 103.40836,203.623254 C110.353698,210.928142 115.138264,220.171063 117.299035,230.15938 C125.016077,233.886364 134.276527,235.973476 144.154341,235.973476 C153.723473,236.271634 162.983923,234.035444 170.700965,230.30846 Z" id="Shape" fill="#E76650" fill-rule="nonzero" opacity="0.600000024"></path>
                            <path d="M221.349533,322.8 C255.566355,322.8 283.424299,295.2 283.424299,261.3 C283.424299,260.4 283.424299,259.2 283.121495,258.3 C281.607477,282.3 261.319626,301.2 236.792523,301.2 C216.201869,301.2 198.639252,287.7 192.583178,269.4 C192.583178,240.6 203.786916,214.2 221.95514,194.1 C243.151402,173.7 256.171963,144.9 256.171963,113.4 C256.171963,51 204.998131,0.3 142.014953,0.3 C79.0317757,0.3 27.8579439,51 27.8579439,113.4 C27.8579439,145.2 40.8785047,173.7 62.0747664,194.1 C80.2429907,213.9 91.1439252,240.3 91.446729,269.1 C85.3906542,287.7 67.8280374,301.2 46.9345794,301.2 C22.4074766,301.2 2.11962617,282.3 0.605607477,258.3 C0.605607477,259.2 0.302803738,260.4 0.302803738,261.3 C0.302803738,295.2 28.1607477,322.8 62.3775701,322.8 C85.0878505,322.8 107.798131,310.8 120.515888,292.8 C121.424299,309.3 126.874766,325.5 136.261682,338.7 C161.091589,373.5 209.842991,381.9 244.968224,357.3 C246.179439,356.4 247.08785,355.8 247.996262,354.9 C221.95514,370.8 187.435514,363.9 169.570093,338.7 C158.971963,323.7 156.549533,305.7 161.091589,289.5 C173.506542,309.3 197.428037,322.8 221.349533,322.8 Z" id="Shape" stroke="#F97D69" stroke-width="8.98560215" stroke-linecap="round" stroke-linejoin="round"></path>
                            <path d="M157.760748,261.3 C154.127103,271.5 156.549533,284.4 163.514019,293.1" id="Shape" stroke="#F4705A" stroke-width="8.98560215" stroke-linecap="round" stroke-linejoin="round"></path>
                            <path d="M119.91028,293.7 C126.874766,285.3 128.994393,272.4 125.057944,261.9" id="Shape" stroke="#F4705A" stroke-width="8.98560215" stroke-linecap="round" stroke-linejoin="round"></path>
                            <g id="Group" transform="translate(81.757009, 163.500000)">
                                <g id="Shape" stroke-linecap="round" stroke-linejoin="round" transform="translate(5.100995, 18.557142)" stroke-width="15.1856693" stroke="#C45340">
                                    <path d="M22.4443774,0.505714287 C22.4443774,6.52285713 17.3433826,11.5371429 11.2221887,11.5371429 C5.10099486,11.5371429 0,6.52285713 0,0.505714287"></path>
                                    <path d="M109.899307,0.505714287 C109.899307,6.52285713 104.798312,11.5371429 98.6771178,11.5371429 C92.5559239,11.5371429 87.4549291,6.52285713 87.4549291,0.505714287"></path>
                                </g>
                                <g id="Oval" fill-rule="nonzero">
                                    <g id="Group">
                                        <ellipse id="Oval" fill="#FFFFFF" cx="16.3231836" cy="16.0542857" rx="15.3029846" ry="15.0428571"></ellipse>
                                        <ellipse id="Oval" fill="#55271F" cx="11.7322882" cy="10.5385714" rx="5.61109435" ry="5.51571429"></ellipse>
                                    </g>
                                    <g id="Group" transform="translate(88.442568, 0.000000)">
                                        <ellipse id="Oval" fill="#FFFFFF" cx="15.3355442" cy="16.0542857" rx="15.3029846" ry="15.0428571"></ellipse>
                                        <ellipse id="Oval" fill="#55271F" cx="10.2345493" cy="10.5385714" rx="5.61109435" ry="5.51571429"></ellipse>
                                    </g>
                                </g>
                            </g>
                            <ellipse id="Oval" fill="#FFFFFF" fill-rule="nonzero" opacity="0.347882699" cx="91.7495327" cy="67.8" rx="3.33084112" ry="3.3"></ellipse>
                            <ellipse id="Oval" fill="#FFFFFF" fill-rule="nonzero" opacity="0.347882699" cx="148.979439" cy="71.7" rx="6.96448598" ry="6.9"></ellipse>
                            <ellipse id="Oval" fill="#FFFFFF" fill-rule="nonzero" opacity="0.347882699" cx="130.508411" cy="89.1" rx="3.33084112" ry="3.3"></ellipse>
                            <ellipse id="Oval" fill="#FFFFFF" fill-rule="nonzero" opacity="0.347882699" cx="97.5028037" cy="99" rx="6.66168224" ry="6.6"></ellipse>
                            <ellipse id="Oval" fill="#FFFFFF" fill-rule="nonzero" opacity="0.347882699" cx="200.153271" cy="85.8" rx="7.26728972" ry="7.2"></ellipse>
                            <ellipse id="Oval" fill="#FFFFFF" fill-rule="nonzero" opacity="0.347882699" cx="175.626168" cy="123.6" rx="4.23925234" ry="4.2"></ellipse>
                            <ellipse id="Oval" fill="#FFFFFF" fill-rule="nonzero" opacity="0.347882699" cx="82.9682243" cy="117" rx="3.02803738" ry="3"></ellipse>
                            <ellipse id="Oval" fill="#FFFFFF" fill-rule="nonzero" opacity="0.347882699" cx="215.899065" cy="122.4" rx="5.45046729" ry="5.4"></ellipse>
                            <ellipse id="Oval" fill="#FFFFFF" fill-rule="nonzero" opacity="0.347882699" cx="60.5607477" cy="140.4" rx="4.54205607" ry="4.5"></ellipse>
                            <ellipse id="Oval" fill="#FFFFFF" fill-rule="nonzero" opacity="0.347882699" cx="136.86729" cy="129.9" rx="6.3588785" ry="6.3"></ellipse>
                            <ellipse id="Oval" fill="#FFFFFF" fill-rule="nonzero" opacity="0.347882699" cx="203.181308" cy="57.9" rx="7.57009346" ry="7.5"></ellipse>
                            <ellipse id="Oval" fill="#FFFFFF" fill-rule="nonzero" opacity="0.347882699" cx="58.4411215" cy="92.4" rx="6.66168224" ry="6.6"></ellipse>
                            <ellipse id="Oval" fill="#FFFFFF" fill-rule="nonzero" opacity="0.347882699" cx="136.261682" cy="34.5" rx="12.717757" ry="12.6"></ellipse>
                            <ellipse id="Oval" fill="#FFFFFF" fill-rule="nonzero" opacity="0.462466033" cx="308.557009" cy="100.2" rx="14.5345794" ry="14.4"></ellipse>
                            <ellipse id="Oval" fill="#FFFFFF" fill-rule="nonzero" opacity="0.462466033" cx="277.368224" cy="56.4" rx="3.63364486" ry="3.6"></ellipse>
                            <ellipse id="Oval" fill="#FFFFFF" fill-rule="nonzero" opacity="0.462466033" cx="290.085981" cy="143.4" rx="4.84485981" ry="4.8"></ellipse>
                            <ellipse id="Oval" fill="#FFFFFF" fill-rule="nonzero" opacity="0.462466033" cx="297.353271" cy="181.8" rx="9.38691589" ry="9.3"></ellipse>
                        </g>
                    </g>
                </g>
            </g>
        </g>
    </g>
</svg>