<?xml version="1.0" encoding="UTF-8"?>
<svg width="105px" height="123px" viewBox="0 0 105 123" version="1.1" xmlns="http://www.w3.org/2000/svg" xmlns:xlink="http://www.w3.org/1999/xlink">
    <!-- Generator: Sketch 46.2 (44496) - http://www.bohemiancoding.com/sketch -->
    <title>if__octopus_1376623</title>
    <desc>Created with Sketch.</desc>
    <defs></defs>
    <g id="Page-1" stroke="none" stroke-width="1" fill="none" fill-rule="evenodd">
        <g id="Desktop-HD-Copy-6" transform="translate(-666.000000, -95.000000)">
            <g id="if__octopus_1376623" transform="translate(668.000000, 97.000000)">
                <g id="Group" transform="translate(5.294393, 61.419355)">
                    <g id="Shape">
                        <path d="M22.428972,18.8096774 C17.7121495,21.7846774 11.5514019,21.4967742 7.12336449,17.6580645 C1.92523364,13.2435484 1.15514019,5.56612903 5.19813084,0.0959677419 C5.00560748,0.287903226 4.81308411,0.47983871 4.62056075,0.767741935 C-1.54018692,7.96532258 -0.770093458,18.8096774 6.44953271,24.9516129 C13.0915888,30.7096774 24.2579439,31.4774194 30.5149533,25.7193548 L22.428972,18.8096774 Z" fill="#F78674" fill-rule="nonzero"></path>
                        <path d="M22.428972,18.8096774 C17.7121495,21.7846774 11.5514019,21.4967742 7.12336449,17.6580645 C1.92523364,13.2435484 1.15514019,5.56612903 5.19813084,0.0959677419 C5.00560748,0.287903226 4.81308411,0.47983871 4.62056075,0.767741935 C-1.54018692,7.96532258 -0.770093458,18.8096774 6.44953271,24.9516129 C13.0915888,30.7096774 24.2579439,31.4774194 30.5149533,25.7193548 L22.428972,18.8096774 Z" stroke="#F97D69" stroke-width="2.88000041" stroke-linecap="round" stroke-linejoin="round"></path>
                    </g>
                    <g id="Shape" transform="translate(49.093458, 0.000000)">
                        <path d="M8.18224299,18.8096774 C12.8990654,21.7846774 19.0598131,21.4967742 23.4878505,17.6580645 C28.6859813,13.2435484 29.4560748,5.56612903 25.4130841,0.0959677419 C25.6056075,0.287903226 25.7981308,0.47983871 25.9906542,0.767741935 C32.1514019,7.96532258 31.3813084,18.8096774 24.1616822,24.9516129 C17.5196262,30.7096774 6.35327103,31.4774194 0.0962616822,25.7193548 L8.18224299,18.8096774 Z" fill="#F78674" fill-rule="nonzero"></path>
                        <path d="M8.18224299,18.8096774 C12.8990654,21.7846774 19.0598131,21.4967742 23.4878505,17.6580645 C28.6859813,13.2435484 29.4560748,5.56612903 25.4130841,0.0959677419 C25.6056075,0.287903226 25.7981308,0.47983871 25.9906542,0.767741935 C32.1514019,7.96532258 31.3813084,18.8096774 24.1616822,24.9516129 C17.5196262,30.7096774 6.35327103,31.4774194 0.0962616822,25.7193548 L8.18224299,18.8096774 Z" stroke="#F97D69" stroke-width="2.88000041" stroke-linecap="round" stroke-linejoin="round"></path>
                    </g>
                </g>
                <path d="M70.3672897,103.26129 C81.2448598,103.26129 90.1009346,94.4322581 90.1009346,83.5879032 C90.1009346,83.3 90.1009346,82.916129 90.0046729,82.6282258 C89.5233645,90.3056452 83.0738318,96.3516129 75.2766355,96.3516129 C68.7308411,96.3516129 63.1476636,92.0330645 61.2224299,86.1790323 C61.2224299,76.966129 64.7841121,68.5209677 70.5598131,62.091129 C77.2981308,55.5653226 81.4373832,46.3524194 81.4373832,36.2758065 C81.4373832,16.3145161 65.1691589,0.0959677419 45.146729,0.0959677419 C25.1242991,0.0959677419 8.85607477,16.3145161 8.85607477,36.2758065 C8.85607477,46.4483871 12.9953271,55.5653226 19.7336449,62.091129 C25.5093458,68.425 28.9747664,76.8701613 29.071028,86.0830645 C27.1457944,92.0330645 21.5626168,96.3516129 14.9205607,96.3516129 C7.12336449,96.3516129 0.673831776,90.3056452 0.192523364,82.6282258 C0.192523364,82.916129 0.0962616822,83.3 0.0962616822,83.5879032 C0.0962616822,94.4322581 8.95233645,103.26129 19.8299065,103.26129 C27.0495327,103.26129 34.2691589,99.4225806 38.3121495,93.6645161 C38.6009346,98.9427419 40.3336449,104.125 43.317757,108.347581 C51.211215,119.479839 66.7093458,122.166935 77.8757009,114.297581 C78.2607477,114.009677 78.5495327,113.817742 78.8383178,113.529839 C70.5598131,118.616129 59.5859813,116.408871 53.9065421,108.347581 C50.5373832,103.549194 49.7672897,97.791129 51.211215,92.608871 C55.1579439,98.9427419 62.7626168,103.26129 70.3672897,103.26129 Z" id="Shape" fill="#F69282" fill-rule="nonzero"></path>
                <path d="M70.3672897,103.26129 C81.2448598,103.26129 90.1009346,94.4322581 90.1009346,83.5879032 C90.1009346,83.3 90.1009346,82.916129 90.0046729,82.6282258 C89.5233645,90.3056452 83.0738318,96.3516129 75.2766355,96.3516129 C68.7308411,96.3516129 63.1476636,92.0330645 61.2224299,86.1790323 C61.2224299,76.966129 64.7841121,68.5209677 70.5598131,62.091129 C77.2981308,55.5653226 81.4373832,46.3524194 81.4373832,36.2758065 C81.4373832,16.3145161 65.1691589,11.9959677 45.146729,11.9959677 C25.1242991,11.9959677 8.85607477,16.3145161 8.85607477,36.2758065 C8.85607477,46.4483871 12.9953271,55.5653226 19.7336449,62.091129 C25.5093458,68.425 28.9747664,76.8701613 29.071028,86.0830645 C27.1457944,92.0330645 21.5626168,96.3516129 14.9205607,96.3516129 C7.12336449,96.3516129 0.673831776,90.3056452 0.192523364,82.6282258 C0.192523364,82.916129 0.0962616822,83.3 0.0962616822,83.5879032 C0.0962616822,94.4322581 8.95233645,103.26129 19.8299065,103.26129 C27.0495327,103.26129 34.2691589,99.4225806 38.3121495,93.6645161 C38.6009346,98.9427419 40.3336449,104.125 43.317757,108.347581 C51.211215,119.479839 66.7093458,122.166935 77.8757009,114.297581 C78.2607477,114.009677 78.5495327,113.817742 78.8383178,113.529839 C70.5598131,118.616129 59.5859813,116.408871 53.9065421,108.347581 C50.5373832,103.549194 49.7672897,97.791129 51.211215,92.608871 C55.1579439,98.9427419 62.7626168,103.26129 70.3672897,103.26129 Z" id="Shape" fill="#F97D69" fill-rule="nonzero"></path>
                <path d="M61.8962617,79.2693548 C63.1476636,72.7435484 66.2280374,66.8895161 70.5598131,62.1870968 C72.2925234,60.5556452 73.8327103,58.7322581 75.1803738,56.7169355 C72.5813084,50.191129 60.1635514,61.2274194 45.2429907,61.2274194 C30.3224299,61.2274194 17.9046729,50.191129 15.3056075,56.6209677 C16.653271,58.6362903 18.1934579,60.4596774 19.9261682,62.091129 C24.2579439,66.7935484 27.2420561,72.7435484 28.5897196,79.1733871 C33.4028037,81.5725806 39.1785047,82.916129 45.3392523,82.916129 C51.3074766,83.1080645 57.0831776,81.6685484 61.8962617,79.2693548 Z" id="Shape" fill="#E76650" fill-rule="nonzero" opacity="0.600000024"></path>
                <path d="M70.3672897,103.26129 C81.2448598,103.26129 90.1009346,94.4322581 90.1009346,83.5879032 C90.1009346,83.3 90.1009346,82.916129 90.0046729,82.6282258 C89.5233645,90.3056452 83.0738318,96.3516129 75.2766355,96.3516129 C68.7308411,96.3516129 63.1476636,92.0330645 61.2224299,86.1790323 C61.2224299,76.966129 64.7841121,68.5209677 70.5598131,62.091129 C77.2981308,55.5653226 81.4373832,46.3524194 81.4373832,36.2758065 C81.4373832,16.3145161 65.1691589,0.0959677419 45.146729,0.0959677419 C25.1242991,0.0959677419 8.85607477,16.3145161 8.85607477,36.2758065 C8.85607477,46.4483871 12.9953271,55.5653226 19.7336449,62.091129 C25.5093458,68.425 28.9747664,76.8701613 29.071028,86.0830645 C27.1457944,92.0330645 21.5626168,96.3516129 14.9205607,96.3516129 C7.12336449,96.3516129 0.673831776,90.3056452 0.192523364,82.6282258 C0.192523364,82.916129 0.0962616822,83.3 0.0962616822,83.5879032 C0.0962616822,94.4322581 8.95233645,103.26129 19.8299065,103.26129 C27.0495327,103.26129 34.2691589,99.4225806 38.3121495,93.6645161 C38.6009346,98.9427419 40.3336449,104.125 43.317757,108.347581 C51.211215,119.479839 66.7093458,122.166935 77.8757009,114.297581 C78.2607477,114.009677 78.5495327,113.817742 78.8383178,113.529839 C70.5598131,118.616129 59.5859813,116.408871 53.9065421,108.347581 C50.5373832,103.549194 49.7672897,97.791129 51.211215,92.608871 C55.1579439,98.9427419 62.7626168,103.26129 70.3672897,103.26129 Z" id="Shape" stroke="#F97D69" stroke-width="2.88000041" stroke-linecap="round" stroke-linejoin="round"></path>
                <path d="M50.1523364,83.5879032 C48.9971963,86.8508065 49.7672897,90.9774194 51.9813084,93.7604839" id="Shape" stroke="#F4705A" stroke-width="2.88000041" stroke-linecap="round" stroke-linejoin="round"></path>
                <path d="M38.1196262,93.9524194 C40.3336449,91.2653226 41.0074766,87.1387097 39.7560748,83.7798387" id="Shape" stroke="#F4705A" stroke-width="2.88000041" stroke-linecap="round" stroke-linejoin="round"></path>
                <g id="Group" transform="translate(25.990654, 52.302419)">
                    <g id="Shape" stroke-linecap="round" stroke-linejoin="round" transform="translate(1.621613, 5.936290)" stroke-width="4.86720124" stroke="#C45340">
                        <path d="M7.1350953,0.161774194 C7.1350953,2.0866129 5.51348274,3.69064517 3.56754765,3.69064517 C1.62161256,3.69064517 0,2.0866129 0,0.161774194"></path>
                        <path d="M34.9371252,0.161774194 C34.9371252,2.0866129 33.3155127,3.69064517 31.3695776,3.69064517 C29.4236425,3.69064517 27.8020299,2.0866129 27.8020299,0.161774194"></path>
                    </g>
                    <g id="Oval" fill-rule="nonzero">
                        <g id="Group">
                            <ellipse id="Oval" fill="#FFFFFF" cx="5.18916021" cy="5.13564516" rx="4.8648377" ry="4.81209677"></ellipse>
                            <ellipse id="Oval" fill="#55271F" cx="3.72970891" cy="3.37120967" rx="1.78377382" ry="1.76443549"></ellipse>
                        </g>
                        <g id="Group" transform="translate(28.116001, 0.000000)">
                            <ellipse id="Oval" fill="#FFFFFF" cx="4.87518842" cy="5.13564516" rx="4.8648377" ry="4.81209677"></ellipse>
                            <ellipse id="Oval" fill="#55271F" cx="3.25357586" cy="3.37120967" rx="1.78377382" ry="1.76443549"></ellipse>
                        </g>
                    </g>
                </g>
                <ellipse id="Oval" fill="#FFFFFF" fill-rule="nonzero" opacity="0.347882699" cx="29.1672897" cy="21.6887097" rx="1.0588785" ry="1.05564516"></ellipse>
                <ellipse id="Oval" fill="#FFFFFF" fill-rule="nonzero" opacity="0.347882699" cx="47.3607477" cy="22.9362903" rx="2.21401869" ry="2.20725806"></ellipse>
                <ellipse id="Oval" fill="#FFFFFF" fill-rule="nonzero" opacity="0.347882699" cx="41.488785" cy="28.5024194" rx="1.0588785" ry="1.05564516"></ellipse>
                <ellipse id="Oval" fill="#FFFFFF" fill-rule="nonzero" opacity="0.347882699" cx="30.9962617" cy="31.6693548" rx="2.11775701" ry="2.11129032"></ellipse>
                <ellipse id="Oval" fill="#FFFFFF" fill-rule="nonzero" opacity="0.347882699" cx="63.628972" cy="27.4467742" rx="2.31028037" ry="2.30322581"></ellipse>
                <ellipse id="Oval" fill="#FFFFFF" fill-rule="nonzero" opacity="0.347882699" cx="55.8317757" cy="39.5387097" rx="1.34766355" ry="1.34354839"></ellipse>
                <ellipse id="Oval" fill="#FFFFFF" fill-rule="nonzero" opacity="0.347882699" cx="26.3757009" cy="37.4274194" rx="1" ry="1"></ellipse>
                <ellipse id="Oval" fill="#FFFFFF" fill-rule="nonzero" opacity="0.347882699" cx="68.6345794" cy="39.1548387" rx="1.73271028" ry="1.72741935"></ellipse>
                <ellipse id="Oval" fill="#FFFFFF" fill-rule="nonzero" opacity="0.347882699" cx="19.2523364" cy="44.9129032" rx="1.44392523" ry="1.43951613"></ellipse>
                <ellipse id="Oval" fill="#FFFFFF" fill-rule="nonzero" opacity="0.347882699" cx="43.5102804" cy="41.5540323" rx="2.02149533" ry="2.01532258"></ellipse>
                <ellipse id="Oval" fill="#FFFFFF" fill-rule="nonzero" opacity="0.347882699" cx="64.5915888" cy="18.5217742" rx="2.40654206" ry="2.39919355"></ellipse>
                <ellipse id="Oval" fill="#FFFFFF" fill-rule="nonzero" opacity="0.347882699" cx="18.5785047" cy="29.5580645" rx="2.11775701" ry="2.11129032"></ellipse>
                <ellipse id="Oval" fill="#FFFFFF" fill-rule="nonzero" opacity="0.347882699" cx="43.317757" cy="11.0362903" rx="4.04299065" ry="4.03064516"></ellipse>
                <ellipse id="Oval" fill="#FFFFFF" fill-rule="nonzero" opacity="0.462466033" cx="98.0906542" cy="32.0532258" rx="4.62056075" ry="4.60645161"></ellipse>
                <ellipse id="Oval" fill="#FFFFFF" fill-rule="nonzero" opacity="0.462466033" cx="88.1757009" cy="18.0419355" rx="1.15514019" ry="1.1516129"></ellipse>
                <ellipse id="Oval" fill="#FFFFFF" fill-rule="nonzero" opacity="0.462466033" cx="92.2186916" cy="45.8725806" rx="1.54018692" ry="1.53548387"></ellipse>
                <ellipse id="Oval" fill="#FFFFFF" fill-rule="nonzero" opacity="0.462466033" cx="94.528972" cy="58.1564516" rx="2.98411215" ry="2.975"></ellipse>
            </g>
        </g>
    </g>
</svg>