<svg xmlns="http://www.w3.org/2000/svg" width="36" height="30" viewBox="0 0 36 30">
  <path fill="#FFF" stroke="#FFF" stroke-width=".5" d="M16.4736007,14.9760006 L8.75520035,14.9760006 C7.02720028,14.9760006 5.64480022,16.3584007 5.64480022,18.0864007 L5.64480022,20.2752008 C5.64480022,22.0032009 7.02720028,23.3856009 8.75520035,23.3856009 L16.4736007,23.3856009 C18.2016007,23.3856009 19.5840008,22.0032009 19.5840008,20.2752008 L19.5840008,18.0864007 C19.5840008,16.3584007 18.2016007,14.9760006 16.4736007,14.9760006 Z M17.8560007,20.2752008 C17.8560007,21.0816008 17.2800007,21.6576009 16.4736007,21.6576009 L8.75520035,21.6576009 C7.94880032,21.6576009 7.37280029,21.0816008 7.37280029,20.2752008 L7.37280029,18.0864007 C7.37280029,17.2800007 7.94880032,16.7040007 8.75520035,16.7040007 L16.4736007,16.7040007 C17.2800007,16.7040007 17.8560007,17.2800007 17.8560007,18.0864007 L17.8560007,20.2752008 Z M33.7536013,9.21600037 L32.1408013,0.691200027 C32.0256013,0.230400009 31.6800013,0 31.3344012,0 L2.5344001,0 C2.07360008,0 1.72800007,0.345600014 1.72800007,0.691200027 L0.345600014,7.71840031 C0.115200005,8.29440033 0,8.87040035 0,9.44640038 C0,11.1744004 0.921600037,12.7872005 2.4192001,13.5936005 L2.4192001,25.459201 C2.4192001,26.8416011 3.57120014,27.9936011 4.9536002,27.9936011 L21.0816008,27.9936011 C21.5424009,27.9936011 22.0032009,27.6480011 22.0032009,27.0720011 C22.0032009,27.0720011 22.0032009,27.0720011 22.0032009,26.9568011 C22.0032009,26.9568011 22.0032009,26.9568011 22.0032009,26.8416011 L22.0032009,16.4736007 L26.6112011,16.4736007 L26.6112011,26.8416011 C26.6112011,26.8416011 26.6112011,26.8416011 26.6112011,26.9568011 C26.6112011,26.9568011 26.6112011,26.9568011 26.6112011,27.0720011 C26.6112011,27.5328011 26.9568011,27.9936011 27.5328011,27.9936011 L29.1456012,27.9936011 C30.5280012,27.9936011 31.6800013,26.8416011 31.6800013,25.459201 L31.6800013,13.3632005 C32.9472013,12.5568005 33.7536013,11.1744004 33.8688013,9.67680038 C33.8688013,9.56160038 33.8688013,9.33120037 33.7536013,9.21600037 Z M29.8368012,25.344001 C29.8368012,25.804801 29.4912012,26.150401 29.0304012,26.150401 L28.2240011,26.150401 L28.2240011,15.6672006 C28.2240011,15.2064006 27.8784011,14.7456006 27.3024011,14.7456006 L20.9664008,14.7456006 C20.5056008,14.7456006 20.0448008,15.0912006 20.0448008,15.6672006 L20.0448008,26.150401 L4.9536002,26.150401 C4.49280018,26.150401 4.14720016,25.804801 4.14720016,25.344001 L4.14720016,14.1696006 C4.37760017,14.1696006 4.60800018,14.2848006 4.83840019,14.2848006 C6.45120026,14.2848006 7.94880032,13.4784005 8.87040035,12.2112005 C9.79200039,13.4784005 11.1744004,14.2848006 12.9024005,14.2848006 C14.6304006,14.2848006 16.0128006,13.4784005 16.9344007,12.2112005 C17.8560007,13.4784005 19.2384008,14.2848006 20.9664008,14.2848006 C22.6944009,14.2848006 24.076801,13.4784005 24.998401,12.2112005 C25.920001,13.4784005 27.3024011,14.2848006 29.0304012,14.2848006 C29.3760012,14.2848006 29.7216012,14.2848006 29.9520012,14.1696006 L29.9520012,25.344001 L29.8368012,25.344001 Z M32.0256013,9.33120037 C32.0256013,11.0592004 30.6432012,12.4416005 28.9152011,12.4416005 C27.1872011,12.4416005 25.804801,11.0592004 25.804801,9.33120037 C25.804801,8.87040035 25.459201,8.40960033 24.883201,8.40960033 C24.307201,8.40960033 23.961601,8.75520035 23.961601,9.33120037 C23.961601,11.0592004 22.5792009,12.4416005 20.8512008,12.4416005 C19.1232008,12.4416005 17.7408007,11.0592004 17.7408007,9.33120037 C17.7408007,8.87040035 17.3952007,8.40960033 16.8192007,8.40960033 C16.2432006,8.40960033 15.8976006,8.75520035 15.8976006,9.33120037 C15.8976006,11.0592004 14.5152006,12.4416005 12.7872005,12.4416005 C11.0592004,12.4416005 9.67680038,11.0592004 9.67680038,9.33120037 C9.67680038,8.87040035 9.33120037,8.40960033 8.75520035,8.40960033 C8.17920033,8.40960033 8.06400032,8.87040035 8.06400032,9.33120037 C8.06400032,11.0592004 6.68160027,12.4416005 4.9536002,12.4416005 C3.22560013,12.4416005 1.84320007,11.0592004 1.84320007,9.33120037 C1.84320007,8.98560036 1.95840008,8.52480034 2.07360008,8.17920033 C2.07360008,8.17920033 2.07360008,8.06400032 2.07360008,8.06400032 L3.34080013,1.72800007 L30.7584012,1.72800007 L32.1408013,9.21600037 C32.0256013,9.33120037 32.0256013,9.33120037 32.0256013,9.33120037 Z" transform="translate(1 1)"/>
</svg>
